<svg width="30" height="29" viewBox="0 0 30 29" fill="none" xmlns="http://www.w3.org/2000/svg">
<mask id="path-1-inside-1_20_192" fill="white">
<path fill-rule="evenodd" clip-rule="evenodd" d="M18.3998 14.2855C20.8333 13.0372 22.5 10.4906 22.5 7.55208C22.5 3.38118 19.1421 0 15 0C10.8579 0 7.5 3.38118 7.5 7.55208C7.5 10.4906 9.16672 13.0372 11.6002 14.2855C4.95364 15.8364 0 21.8357 0 29H30C30 21.8357 25.0464 15.8364 18.3998 14.2855Z"/>
</mask>
<path d="M18.3998 14.2855L17.9434 13.3957L15.518 14.6399L18.1726 15.2593L18.3998 14.2855ZM11.6002 14.2855L11.8274 15.2593L14.482 14.6399L12.0566 13.3957L11.6002 14.2855ZM0 29H-1V30H0V29ZM30 29V30H31V29H30ZM21.5 7.55208C21.5 10.1037 20.0538 12.3131 17.9434 13.3957L18.8563 15.1752C21.6127 13.7612 23.5 10.8775 23.5 7.55208H21.5ZM15 1C18.5833 1 21.5 3.92693 21.5 7.55208H23.5C23.5 2.83543 19.7009 -1 15 -1V1ZM8.5 7.55208C8.5 3.92693 11.4167 1 15 1V-1C10.2991 -1 6.5 2.83543 6.5 7.55208H8.5ZM12.0566 13.3957C9.94619 12.3131 8.5 10.1037 8.5 7.55208H6.5C6.5 10.8775 8.38725 13.7612 11.1437 15.1752L12.0566 13.3957ZM1 29C1 22.3063 5.62772 16.7059 11.8274 15.2593L11.3729 13.3116C4.27955 14.9668 -1 21.3651 -1 29H1ZM30 28H0V30H30V28ZM18.1726 15.2593C24.3723 16.7059 29 22.3063 29 29H31C31 21.3651 25.7204 14.9668 18.6271 13.3116L18.1726 15.2593Z" fill="#FF8137" mask="url(#path-1-inside-1_20_192)"/>
</svg>
