<svg width="40" height="34" viewBox="0 0 40 34" fill="none" xmlns="http://www.w3.org/2000/svg">
<path d="M3.86673 17.2343L20 0.715604L36.1333 17.2343H3.86673Z" stroke="#F2994A"/>
<mask id="path-2-inside-1_20_203" fill="white">
<path fill-rule="evenodd" clip-rule="evenodd" d="M33.6987 17.6375H6.30145V33.1429H15.6165V26.6306H24.6576V33.1429H33.6987V17.6375Z"/>
</mask>
<path d="M6.30145 17.6375V16.6375H5.30145V17.6375H6.30145ZM33.6987 17.6375H34.6987V16.6375H33.6987V17.6375ZM6.30145 33.1429H5.30145V34.1429H6.30145V33.1429ZM15.6165 33.1429V34.1429H16.6165V33.1429H15.6165ZM15.6165 26.6306V25.6306H14.6165V26.6306H15.6165ZM24.6576 26.6306H25.6576V25.6306H24.6576V26.6306ZM24.6576 33.1429H23.6576V34.1429H24.6576V33.1429ZM33.6987 33.1429V34.1429H34.6987V33.1429H33.6987ZM6.30145 18.6375H33.6987V16.6375H6.30145V18.6375ZM7.30145 33.1429V17.6375H5.30145V33.1429H7.30145ZM15.6165 32.1429H6.30145V34.1429H15.6165V32.1429ZM16.6165 33.1429V26.6306H14.6165V33.1429H16.6165ZM15.6165 27.6306H24.6576V25.6306H15.6165V27.6306ZM23.6576 26.6306V33.1429H25.6576V26.6306H23.6576ZM33.6987 32.1429H24.6576V34.1429H33.6987V32.1429ZM32.6987 17.6375V33.1429H34.6987V17.6375H32.6987Z" fill="#F2994A" mask="url(#path-2-inside-1_20_203)"/>
</svg>
